<svg xmlns="http://www.w3.org/2000/svg"><symbol id="icon-add-friend" viewBox="0 0 612 612"><path d="M269.272 310.198c86.177-.005 117.184-86.291 125.301-157.169C404.572 65.715 363.282 0 269.272 0 175.274 0 133.963 65.71 143.97 153.029c8.125 70.878 39.123 157.175 125.302 157.169z"/><path d="M457.707 346.115c2.773 0 5.528.083 8.264.235-4.101-5.85-8.848-11.01-14.403-15.158-16.559-12.359-38.005-16.414-56.964-23.864-9.229-3.625-17.493-7.226-25.251-11.326-26.184 28.715-60.329 43.736-100.091 43.74-39.749 0-73.891-15.021-100.072-43.74-7.758 4.101-16.024 7.701-25.251 11.326-18.959 7.451-40.404 11.505-56.964 23.864-28.638 21.375-36.039 69.46-41.854 102.26-4.799 27.076-8.023 54.707-8.964 82.209-.729 21.303 9.789 24.29 27.611 30.721 22.315 8.048 45.356 14.023 68.552 18.921 44.797 9.46 90.973 16.729 136.95 17.054 22.278-.159 44.601-1.956 66.792-4.833-16.431-23.807-26.068-52.645-26.068-83.695.001-81.451 66.264-147.714 147.713-147.714z"/><path d="M457.707 375.658c-65.262 0-118.171 52.909-118.171 118.171S392.444 612 457.707 612s118.172-52.909 118.172-118.171c-.001-65.263-52.91-118.171-118.172-118.171zm51.7 138.445h-31.425v31.424c0 11.198-9.077 20.276-20.274 20.276-11.198 0-20.276-9.078-20.276-20.276v-31.424h-31.424c-11.198 0-20.276-9.077-20.276-20.276 0-11.198 9.077-20.276 20.276-20.276h31.424v-31.424c0-11.198 9.078-20.276 20.276-20.276s20.274 9.078 20.274 20.276v31.424h31.425c11.198 0 20.276 9.078 20.276 20.276-.001 11.2-9.077 20.276-20.276 20.276z"/></symbol><symbol id="icon-airplane" viewBox="0 0 38.1 37.9"><path d="M34.8 4.8L14.9 24.9c-.4.4-1.1.4-1.6 0l-.1-.1c-.4-.4-.4-1.1 0-1.6L33 3.1c.4-.4 1.1-.4 1.6 0l.1.1c.5.5.5 1.2.1 1.6zM4 16.5l8.1 5.1c1.5 1 3.4 2.8 4.3 4.4l4.9 7.9L34.2 3.7 4 16.5zM37.9 1.4L22.7 36.9c-.3.7-.7 1-1.2 1-.4 0-.8-.3-1.2-.8l-6-9.8c-.7-1.2-2.3-2.8-3.5-3.5l-10-6.2c-1.2-.7-1.1-1.8.2-2.3L36.5.2c.3-.1.6-.2.8-.2.7-.1 1 .5.6 1.4z"/></symbol><symbol id="icon-attach" viewBox="0 0 30.34 30.34"><path d="M22.562 12.491s1.227-.933.293-1.866c-.934-.933-1.842.271-1.842.271l-9.389 9.391s-2.199 2.838-3.871 1.122c-1.67-1.718 1.121-3.872 1.121-3.872l12.311-12.31s2.873-3.165 5.574-.466c2.697 2.7-.477 5.579-.477 5.579L12.449 24.173s-4.426 5.113-8.523 1.015 1.066-8.474 1.066-8.474L15.494 6.209s1.176-.982.295-1.866c-.885-.883-1.865.295-1.865.295L1.873 16.689s-4.549 4.989.531 10.068c5.08 5.082 10.072.533 10.072.533l16.563-16.565s3.314-3.655-.637-7.608-7.607-.639-7.607-.639L6.543 16.728s-3.65 2.969-.338 6.279c3.312 3.314 6.227-.39 6.227-.39l10.13-10.126z"/></symbol><symbol id="icon-calendar" viewBox="0 0 19 19"><style>.st0{fill:#44c9f6}</style><path class="st0" d="M5.5 7.1H4.3c-.3 0-.6.3-.6.6v1.2c0 .3.3.6.6.6h1.2c.3 0 .6-.3.6-.6V7.7c0-.3-.3-.6-.6-.6z"/><path class="st0" d="M17.9 1.8h-4.8V.6c0-.3-.3-.6-.6-.6s-.6.3-.6.6v1.2H7.1V.6c0-.3-.3-.6-.6-.6s-.6.3-.6.6v1.2H1.2C.5 1.8 0 2.3 0 3v14.8c0 .7.5 1.2 1.2 1.2h16.6c.7 0 1.2-.5 1.2-1.2V3c.1-.7-.4-1.2-1.1-1.2zm0 16H1.3V3H6v.6c0 .3.3.6.6.6s.6-.3.6-.6V3H12v.6c0 .3.3.6.6.6s.6-.3.6-.6V3H18v14.8h-.1z"/><path class="st0" d="M5.5 11.8H4.3c-.3 0-.6.3-.6.6v1.2c0 .3.3.6.6.6h1.2c.3 0 .6-.3.6-.6v-1.2c0-.3-.3-.6-.6-.6zM10.2 11.8H9c-.3 0-.6.3-.6.6v1.2c0 .3.3.6.6.6h1.2c.3 0 .6-.3.6-.6v-1.2c0-.3-.3-.6-.6-.6zM13.8 14.2H15c.3 0 .6-.3.6-.6v-1.2c0-.3-.3-.6-.6-.6h-1.2c-.3 0-.6.3-.6.6v1.2c0 .4.2.6.6.6zM10.2 7.1H9c-.3 0-.6.3-.6.6v1.2c0 .3.3.6.6.6h1.2c.3 0 .6-.3.6-.6V7.7c0-.3-.3-.6-.6-.6zM13.8 9.5H15c.3 0 .6-.3.6-.6V7.7c0-.3-.3-.6-.6-.6h-1.2c-.3 0-.6.3-.6.6v1.2c0 .3.2.6.6.6z"/></symbol><symbol id="icon-chat" viewBox="0 0 60 60"><path d="M57.348.793H12.652A2.655 2.655 0 0 0 10 3.446v9.347H2.652A2.655 2.655 0 0 0 0 15.446v43.761l9.414-9.414h34.934A2.655 2.655 0 0 0 47 47.14v-6.347h3.586L60 50.207V3.446A2.655 2.655 0 0 0 57.348.793zM45 47.14c0 .36-.293.653-.652.653H8.586L2 54.379V15.446c0-.36.293-.653.652-.653h41.696c.359 0 .652.293.652.653V47.14zm13-1.761l-6.586-6.586H47V15.446a2.655 2.655 0 0 0-2.652-2.653H12V3.446c0-.36.293-.653.652-.653h44.695c.36 0 .653.293.653.653v41.933z"/><path d="M11 24.793h12a1 1 0 1 0 0-2H11a1 1 0 1 0 0 2zM36 29.793H11a1 1 0 1 0 0 2h25a1 1 0 1 0 0-2zM36 36.793H11a1 1 0 1 0 0 2h25a1 1 0 1 0 0-2z"/></symbol><symbol id="icon-config" viewBox="0 0 18 18.4"><style>.st0{fill:#1b1b1b}</style><path class="st0" d="M8.9 6.9c-1.3 0-2.3 1-2.3 2.3s1 2.3 2.3 2.3 2.3-1 2.3-2.3c0-1.3-1-2.3-2.3-2.3zm0 5.7c-1.9 0-3.4-1.5-3.4-3.4S7 5.8 8.9 5.8s3.4 1.5 3.4 3.4-1.5 3.4-3.4 3.4zm7.8-4l-2.1-.5-.2-.6c-.1-.3-.2-.6-.4-.9l-.3-.6 1.1-1.9c.1-.1.1-.2.1-.3l-.7-.7c-.1 0-.2 0-.2.1l-1.8 1.2-.6-.3c-.3-.1-.6-.3-.9-.4l-.6-.2-.5-2.2c0-.1-.1-.2-.1-.2H8.4s-.1.1-.1.3l-.5 2.1-.6.2c-.3.1-.6.2-.9.4l-.6.3-1.9-1.2s-.1-.1-.2-.1l-.7.7c0 .1 0 .2.1.3L4.2 6l-.3.6c-.1.3-.3.6-.3.8l-.2.6-2.1.5c-.1 0-.2.1-.2.1v1.1s.1.1.3.1l2.1.5.2.6c.1.2.2.5.3.8l.3.6-1.2 1.9c-.1.1-.1.2-.1.3l.7.7c.1 0 .2 0 .2-.1l1.9-1.2.6.3c.3.2.6.3.9.4l.6.2.5 2.1c0 .1.1.2.1.3h1s.1-.1.1-.2l.5-2.1.6-.2c.3-.1.6-.2.9-.4l.6-.3 1.9 1.2s.1.1.2.1l.7-.7c0-.1 0-.2-.1-.3l-1.1-1.9.3-.6c.1-.3.3-.5.3-.8l.2-.6 2.1-.5c.1 0 .2-.1.3-.1v-1c-.1-.1-.2-.2-.3-.2zm.2 2.4l-1.5.4c-.1.3-.2.7-.4 1l.8 1.3c.3.5.4 1.2 0 1.6l-.8.8c-.4.4-1.2.4-1.6.1l-1.3-.8c-.3.2-.7.3-1 .4l-.3 1.5c-.1.5-.6 1.1-1.2 1.1H8.5c-.6 0-1-.6-1.1-1.1L7 15.8c-.4-.1-.8-.3-1.1-.5l-1.3.8c-.5.3-1.2.4-1.6-.1l-.8-.8c-.4-.4-.3-1.1 0-1.6l.8-1.4c-.1-.3-.3-.6-.4-.9l-1.5-.4C.6 10.8 0 10.4 0 9.8V8.7c0-.6.6-1.1 1.1-1.2l1.5-.3c.1-.3.2-.7.4-1l-.8-1.4c-.3-.5-.4-1.2 0-1.6l.8-.8c.4-.4 1.2-.4 1.6-.1l1.3.8c.4-.2.7-.3 1.1-.5l.4-1.5C7.5.6 7.9 0 8.5 0h1.1c.6 0 1.1.6 1.2 1.1l.3 1.5c.4.1.7.3 1 .4l1.3-.8c.5-.3 1.2-.4 1.6.1l.8.8c.4.4.3 1.1 0 1.6L15 6c.2.3.3.7.4 1l1.5.3c.5.1 1.1.6 1.1 1.2v1.1c0 .8-.6 1.2-1.1 1.4z"/></symbol><symbol id="icon-document" viewBox="0 0 13.6 18.9"><style>.st0{fill:#44c9f6}</style><path class="st0" d="M6 7.7V.6h1.2v5.9h5.9v1.2H6zm6.4-1.3L7.2 1.2h-6v16.5h11.2V6.4zm0 12.5H1.2c-.6 0-1.2-.5-1.2-1.2V1.2C0 .5.5 0 1.2 0h6.5l5.9 5.9v11.8c0 .7-.5 1.2-1.2 1.2z"/></symbol><symbol id="icon-email" viewBox="0 0 17 12"><style>.st0{fill:#1b1b1b}</style><path class="st0" d="M16.8 1.6l-8 6.5c-.1.1-.2.1-.3.1-.1 0-.2 0-.3-.1l-8-6.5C0 1.4 0 1.1.1.8.3.6.6.5.8.7l7.6 6.2L16 .7c.2-.2.6-.2.7.1.4.3.3.6.1.8zm-.9-.2c0-.3 0-.3-.3-.3H1.8c-.3 0-.8 0-.8.3v8.7c0 .3.5.8.8.8h13.8c.3 0 .3-.5.3-.8V1.4zM15.7 12H1.9C1 12 0 11 0 10.1V1.4C0 .5 1 0 1.9 0h13.8c.9 0 1.3.5 1.3 1.4v8.7c0 .9-.4 1.9-1.3 1.9z"/></symbol><symbol id="icon-facebook-social" viewBox="0 0 96.227 96.227"><path d="M73.099 15.973l-9.058.004c-7.102 0-8.477 3.375-8.477 8.328v10.921h16.938l-.006 17.106H55.564v43.895H37.897V52.332h-14.77V35.226h14.77V22.612C37.897 7.972 46.84 0 59.9 0l13.2.021-.001 15.952z"/></symbol><symbol id="icon-google-plus-social" viewBox="0 0 96.669 96.669"><path d="M50.91 55.189l-4.533-3.522c-1.38-1.144-3.27-2.656-3.27-5.422 0-2.778 1.889-4.544 3.527-6.18 5.279-4.157 10.557-8.581 10.557-17.903 0-9.586-6.031-14.629-8.923-17.022h7.795L64.244 0H39.459C32.658 0 22.856 1.608 15.68 7.533c-5.408 4.666-8.046 11.099-8.046 16.892 0 9.831 7.548 19.798 20.88 19.798 1.259 0 2.636-.124 4.022-.252-.623 1.515-1.252 2.777-1.252 4.917 0 3.905 2.006 6.299 3.774 8.567-5.663.39-16.237 1.018-24.033 5.809-7.424 4.415-9.684 10.84-9.684 15.377 0 9.334 8.8 18.028 27.045 18.028 21.636 0 33.089-11.971 33.089-23.823.002-8.707-5.028-12.992-10.565-17.657zM34.431 40.691c-10.824 0-15.727-13.992-15.727-22.434 0-3.288.623-6.682 2.763-9.333C23.486 6.4 27 4.762 30.281 4.762c10.434 0 15.846 14.118 15.846 23.197 0 2.271-.251 6.296-3.144 9.207-2.023 2.021-5.409 3.525-8.552 3.525zm.124 50.696c-13.46 0-22.139-6.438-22.139-15.392 0-8.949 8.048-11.978 10.816-12.979 5.281-1.777 12.076-2.024 13.21-2.024 1.258 0 1.887 0 2.889.126 9.568 6.81 13.721 10.203 13.721 16.65.001 7.805-6.417 13.619-18.497 13.619zM82.679 40.499V27.894h-6.224v12.605H63.869v6.294h12.586v12.684h6.224V46.793h12.649v-6.294z"/></symbol><symbol id="icon-list" viewBox="0 0 16 10"><style>.st0{fill:#44c9f6}</style><path class="st0" d="M11 9.5H.5C.2 9.5 0 9.3 0 9s.2-.5.5-.5H11c.3 0 .5.2.5.5s-.2.5-.5.5zm4.5.5h-1c-.3 0-.5-.2-.5-.5v-1c0-.3.2-.5.5-.5h1c.3 0 .5.2.5.5v1c0 .3-.2.5-.5.5zM11 1.5H.5C.2 1.5 0 1.3 0 1S.2.5.5.5H11c.3 0 .5.2.5.5s-.2.5-.5.5zm4.5.5h-1c-.3 0-.5-.2-.5-.5v-1c0-.3.2-.5.5-.5h1c.3 0 .5.2.5.5v1c0 .3-.2.5-.5.5zM11 5.5H.5C.2 5.5 0 5.3 0 5s.2-.5.5-.5H11c.3 0 .5.2.5.5s-.2.5-.5.5zm4.5.5h-1c-.3 0-.5-.2-.5-.5v-1c0-.3.2-.5.5-.5h1c.3 0 .5.2.5.5v1c0 .3-.2.5-.5.5z"/></symbol><symbol id="icon-login" viewBox="0 0 24 24.1"><style>.st0{fill:#5f5f5f}</style><path class="st0" d="M22.5 24.1H9.7c-.8 0-1.5-.7-1.5-1.5v-6.8h1.5v5.9c0 .5.4.9.9.9h10.9c.5 0 .9-.4.9-.9V2.5c0-.5-.4-.9-.9-.9H10.6c-.5 0-.9.4-.9.9v5.8H8.2V1.5C8.2.7 8.9 0 9.7 0h12.8c.8 0 1.5.7 1.5 1.5v21c0 .9-.7 1.6-1.5 1.6zM0 12c0-.5.4-.8.8-.8H15c.5 0 .8.4.8.8 0 .5-.4.8-.8.8H.8c-.4 0-.8-.3-.8-.8zm11-3.3c-.3-.3-.3-.8 0-1.1s.8-.3 1.1 0l4.4 4.5-4.5 4.6c-.1.1-.3.2-.5.2s-.4-.1-.5-.2c-.3-.3-.3-.8 0-1.1l3.5-3.5L11 8.7z"/></symbol><symbol id="icon-logout" viewBox="0 0 24 24.1"><style>.st0{fill:#5f5f5f}</style><path class="st0" d="M22.5 24.1H9.7c-.8 0-1.5-.7-1.5-1.5v-6.8h1.5v5.9c0 .5.4.9.9.9h10.9c.5 0 .9-.4.9-.9V2.5c0-.5-.4-.9-.9-.9H10.6c-.5 0-.9.4-.9.9v5.8H8.2V1.5C8.2.7 8.9 0 9.7 0h12.8c.8 0 1.5.7 1.5 1.5v21c0 .9-.7 1.6-1.5 1.6zm-6.8-11.3H1.5c-.4 0-.8-.3-.8-.8 0-.4.3-.8.8-.8h14.2c.4 0 .8.3.8.8s-.4.8-.8.8zM2 12.1l3.5 3.5c.3.3.3.8 0 1.1-.1.1-.3.2-.5.2s-.4-.1-.5-.2L0 12.1l4.4-4.5c.3-.3.8-.3 1.1 0 .3.3.3.8 0 1.1L2 12.1z"/></symbol><symbol id="icon-mailru-social" viewBox="0 0 94 90.2"><style>.st0{fill:#f89c0e}</style><path id="path24" class="st0" d="M63.3 44.7C62.7 34.3 55 28 45.7 28h-.4c-10.8 0-16.7 8.5-16.7 18.1 0 10.8 7.2 17.6 16.7 17.6 10.6 0 17.5-7.7 18-16.9v-2.1zm-17.9-26c7.2 0 13.9 3.2 18.9 8.2 0-2.4 1.6-4.2 3.8-4.2h.6c3.5 0 4.2 3.3 4.2 4.3v37.1c-.2 2.4 2.5 3.7 4 2.1 6-6.1 13.1-31.5-3.7-46.2C57.6 6.4 36.6 8.7 25.4 16.4 13.5 24.6 5.9 42.7 13.3 59.7c8 18.6 31.1 24.1 44.8 18.6 6.9-2.8 10.1 6.6 2.9 9.6-10.9 4.6-41.1 4.2-55.3-20.3C-3.8 51.1-3.3 22 22 6.9c19.4-11.5 45-8.4 60.4 7.7 16.1 16.9 15.1 48.4-.6 60.6-7.1 5.6-17.7.1-17.6-8l-.1-2.7c-5 4.9-11.6 7.8-18.7 7.8-14.2 0-26.7-12.5-26.7-26.7s12.5-26.9 26.7-26.9"/></symbol><symbol id="icon-notebook" viewBox="0 0 16 19.2"><style>.st0{fill:#44c9f6}</style><path class="st0" d="M14.2 0H2.4c-.9 0-1.2.6-1.2 1.2v2.4H.6c-.3 0-.6.3-.6.6s.3.6.6.6h.6v2.4H.6c-.3 0-.6.3-.6.6s.3.6.6.6h.6v2.4H.6c-.3 0-.6.3-.6.6s.3.6.6.6h.6v2.4H.6c-.3 0-.6.3-.6.6s.3.6.6.6h.6V18c0 1 .8 1.2 1.2 1.2h11.8c1 0 1.8-.8 1.8-1.8V1.8c0-1-.8-1.8-1.8-1.8zm-2.4 17.9H2.4v-2.4H3c.3 0 .6-.3.6-.6s-.3-.6-.6-.6h-.6v-2.4H3c.3 0 .6-.3.6-.6s-.3-.6-.6-.6h-.6V8.3H3c.3 0 .6-.3.6-.6s-.3-.6-.6-.6h-.6V4.8H3c.3 0 .6-.3.6-.6s-.3-.6-.6-.6h-.6V1.2h9.4v16.7zm3-.6c0 .3-.3.6-.6.6H13V1.3h1.2c.3 0 .6.3.6.6v15.4z"/></symbol><symbol id="icon-notification" viewBox="0 0 14.1 15"><style>.st0{fill:#1b1b1b}</style><path class="st0" d="M7 15c-1.5 0-2.7-1.1-2.7-2.5 0-.2 0-.3.1-.5h1.1c-.1.2-.1.3-.1.5 0 .8.7 1.5 1.6 1.5s1.6-.7 1.6-1.5c0-.2 0-.3-.1-.5h1.1c0 .2.1.3.1.5C9.7 13.9 8.5 15 7 15zm5.4-3.9c-.7-.8-1.6-1.9-1.6-3.2V4.8C10.8 2.7 9.2 1 7 1 4.9 1 3.2 2.7 3.2 4.8v3.1c0 1.3-1 2.4-1.6 3.1-.1.2-.3.3-.4.5h11.6c-.1-.1-.2-.3-.4-.4zm1.6.9c-.2.5-1 .5-1.3.5H1.4c-.5 0-1.1-.1-1.3-.5-.3-.5.1-1 .6-1.6.6-.7 1.4-1.6 1.4-2.5V4.8C2.1 2.2 4.2 0 6.9 0c2.7 0 4.8 2.1 4.8 4.8v3.1c0 1 .8 1.9 1.4 2.6.7.6 1.1 1 .9 1.5z"/></symbol><symbol id="icon-ok-social" viewBox="0 0 95.481 95.481"><path d="M43.041 67.254c-7.402-.772-14.076-2.595-19.79-7.064-.709-.556-1.441-1.092-2.088-1.713-2.501-2.402-2.753-5.153-.774-7.988 1.693-2.426 4.535-3.075 7.489-1.682.572.27 1.117.607 1.639.969 10.649 7.317 25.278 7.519 35.967.329 1.059-.812 2.191-1.474 3.503-1.812 2.551-.655 4.93.282 6.299 2.514 1.564 2.549 1.544 5.037-.383 7.016-2.956 3.034-6.511 5.229-10.461 6.761-3.735 1.448-7.826 2.177-11.875 2.661.611.665.899.992 1.281 1.376 5.498 5.524 11.02 11.025 16.5 16.566 1.867 1.888 2.257 4.229 1.229 6.425-1.124 2.4-3.64 3.979-6.107 3.81-1.563-.108-2.782-.886-3.865-1.977-4.149-4.175-8.376-8.273-12.441-12.527-1.183-1.237-1.752-1.003-2.796.071-4.174 4.297-8.416 8.528-12.683 12.735-1.916 1.889-4.196 2.229-6.418 1.15-2.362-1.145-3.865-3.556-3.749-5.979.08-1.639.886-2.891 2.011-4.014 5.441-5.433 10.867-10.88 16.295-16.322.359-.362.694-.746 1.217-1.305z"/><path d="M47.55 48.329c-13.205-.045-24.033-10.992-23.956-24.218C23.67 10.739 34.505-.037 47.84 0c13.362.036 24.087 10.967 24.02 24.478-.068 13.199-10.971 23.897-24.31 23.851zm12.001-24.186c-.023-6.567-5.253-11.795-11.807-11.801-6.609-.007-11.886 5.316-11.835 11.943.049 6.542 5.324 11.733 11.896 11.709 6.552-.023 11.768-5.285 11.746-11.851z"/></symbol><symbol id="icon-questionnaire" viewBox="0 0 18.9 18.8"><style>.st0{fill:#44c9f6}</style><path class="st0" d="M17.2 1.5c-.3-.3-.6-.4-.9-.4-.6 0-1 .4-1.1.5l-8 8c-.2.6-.6 1.9-.9 2.9 1-.3 2.3-.7 2.8-.9l.4-.4c4.8-4.7 7.3-7.3 7.7-7.6.4-.4.6-.8.6-1.1s-.2-.7-.6-1zm.9 2.9c-.6.6-7.8 7.7-8.2 8.1-.1.1-.1.1-.2.1-.6.2-4.2 1.3-4.2 1.4h-.2c-.1 0-.3-.1-.4-.1-.1-.1-.2-.3-.1-.5 0 0 1.1-3.5 1.3-4.3 0-.1.1-.2.1-.2L14.3.8c.2-.2.9-.8 1.9-.8.6 0 1.2.3 1.8.8.6.6.9 1.2.9 1.9.1.4-.2 1.1-.8 1.7zm-3.3 14.4H1.2c-.7 0-1.2-.5-1.2-1.2V2.8c0-.7.5-1.2 1.2-1.2h9.5L9.5 2.8H1.2v14.8h13.6V10L16 8.9v8.7c0 .7-.6 1.2-1.2 1.2z"/></symbol><symbol id="icon-search" viewBox="0 0 56.966 56.966"><path d="M55.146 51.887L41.588 37.786A22.926 22.926 0 0 0 46.984 23c0-12.682-10.318-23-23-23s-23 10.318-23 23 10.318 23 23 23c4.761 0 9.298-1.436 13.177-4.162l13.661 14.208c.571.593 1.339.92 2.162.92.779 0 1.518-.297 2.079-.837a3.004 3.004 0 0 0 .083-4.242zM23.984 6c9.374 0 17 7.626 17 17s-7.626 17-17 17-17-7.626-17-17 7.626-17 17-17z"/></symbol><symbol id="icon-send" viewBox="0 0 512 512"><path d="M0 0v170.542L56.972 256 0 341.458V512l512-256L0 0zm30 48.541l343.653 171.827L30 153.633V48.541zm17.41 139.033L322.531 241H83.028L47.41 187.574zM83.028 271h239.504L47.41 324.426 83.028 271zM30 463.459V358.367l343.653-66.735L30 463.459z"/></symbol><symbol id="icon-skype" viewBox="0 0 430.123 430.123"><path d="M412.164 246.198a199.284 199.284 0 0 0 2.45-31.148c0-110.215-89.342-199.555-199.56-199.555-10.576 0-20.995.871-31.141 2.458C165.534 6.581 143.842 0 120.595 0 53.996 0 .005 53.984.005 120.59c0 23.242 6.585 44.916 17.952 63.332-1.573 10.172-2.439 20.528-2.439 31.132 0 110.223 89.34 199.536 199.532 199.536 10.585 0 21.007-.816 31.152-2.417 18.398 11.35 40.072 17.949 63.314 17.949 66.617 0 120.602-53.998 120.602-120.602.005-23.251-6.576-44.92-17.954-63.322zM309.801 305.81c-8.442 12.153-20.843 21.65-37.047 28.479-16.237 6.847-35.428 10.254-57.59 10.254-26.562 0-48.554-4.648-65.913-14.034-12.305-6.721-22.313-15.737-30.007-26.98-7.71-11.252-11.619-22.271-11.619-33.015 0-6.338 2.417-11.85 7.122-16.344 4.754-4.527 10.877-6.796 18.104-6.796 5.92 0 11.005 1.783 15.145 5.316 4.109 3.532 7.556 8.667 10.375 15.443 3.379 7.85 7.049 14.412 10.954 19.648 3.881 5.171 9.343 9.488 16.417 12.867 6.996 3.388 16.307 5.082 27.958 5.082 15.945 0 28.831-3.449 38.693-10.253 9.912-6.866 14.673-15.22 14.673-25.314 0-8.051-2.567-14.445-7.831-19.43-5.312-5.05-12.172-8.896-20.685-11.579-8.546-2.711-20.02-5.586-34.399-8.615-19.308-4.214-35.456-9.119-48.533-14.752-13.094-5.654-23.522-13.383-31.251-23.146-7.745-9.859-11.607-22.113-11.607-36.627 0-13.84 4.077-26.217 12.239-36.989 8.158-10.802 19.961-19.07 35.351-24.829 15.336-5.757 33.391-8.637 54.075-8.637 16.541 0 30.849 1.914 42.96 5.722 12.078 3.836 22.146 8.898 30.196 15.25 7.999 6.338 13.885 13.023 17.613 20.038 3.725 7.036 5.601 13.908 5.601 20.614 0 6.235-2.417 11.89-7.127 16.846-4.709 4.963-10.733 7.493-17.768 7.47-6.342 0-11.317-1.463-14.767-4.56-3.36-2.996-6.889-7.766-10.706-14.414-4.825-9.276-10.604-16.503-17.324-21.672-6.543-5.073-17.338-7.714-32.359-7.682-13.898 0-25.018 2.84-33.411 8.394-8.445 5.643-12.482 12.19-12.501 19.861.014 4.807 1.396 8.86 4.177 12.326 2.824 3.498 6.753 6.529 11.803 9.084a81.825 81.825 0 0 0 15.355 6.046c5.225 1.481 13.894 3.622 25.944 6.457 15.112 3.257 28.819 6.896 41.136 10.862 12.293 3.986 22.784 8.793 31.451 14.52 8.736 5.71 15.564 12.99 20.438 21.783 4.909 8.807 7.354 19.564 7.354 32.222.019 15.242-4.227 28.95-12.689 41.084z"/></symbol><symbol id="icon-smartphone" viewBox="0 0 35 35"><path d="M25.302 0H9.698a2.37 2.37 0 0 0-2.364 2.364v30.271A2.371 2.371 0 0 0 9.698 35h15.604a2.37 2.37 0 0 0 2.364-2.364V2.364A2.37 2.37 0 0 0 25.302 0zM15.004 1.704h4.992a.286.286 0 0 1 0 .573h-4.992a.286.286 0 1 1 0-.573zM17.5 33.818a1.182 1.182 0 1 1 0-2.364 1.182 1.182 0 0 1 0 2.364zm8.521-3.193H8.979V3.749h17.042v26.876z"/></symbol><symbol id="icon-star" viewBox="0 0 426.667 426.667"><path d="M213.333 10.441l65.916 133.576 147.418 21.419L320 269.41l25.173 146.816-131.84-69.316-131.848 69.316 25.182-146.816L0 165.436l147.409-21.419z"/></symbol><symbol id="icon-twitter-social" viewBox="0 0 97.637 97.637"><path d="M97.523 18.526a.482.482 0 0 0-.568-.131 39.055 39.055 0 0 1-9.153 2.776 20.299 20.299 0 0 0 7.143-10.035.484.484 0 0 0-.709-.565 39.147 39.147 0 0 1-12.18 4.701 20.408 20.408 0 0 0-14.644-6.219c-11.204 0-20.318 9.114-20.318 20.317 0 1.355.131 2.697.391 4-15.518-.958-30.028-8.408-39.894-20.509a.484.484 0 0 0-.795.062 20.303 20.303 0 0 0-2.751 10.215 20.3 20.3 0 0 0 7.649 15.896 19.42 19.42 0 0 1-7.089-2.292.483.483 0 0 0-.721.413l-.002.26c0 8.946 5.895 16.801 14.282 19.409a19.514 19.514 0 0 1-6.754-.098.486.486 0 0 0-.553.623A20.314 20.314 0 0 0 28.494 71.39c-6.785 4.971-14.805 7.59-23.279 7.59-1.561 0-3.133-.093-4.673-.274a.492.492 0 0 0-.514.317.485.485 0 0 0 .195.572 56.693 56.693 0 0 0 30.664 8.988c35.625 0 56.913-28.938 56.913-56.914 0-.779-.015-1.554-.046-2.327a40.519 40.519 0 0 0 9.802-10.235.486.486 0 0 0-.033-.581z"/></symbol><symbol id="icon-user" viewBox="0 0 17.1 17.1"><style>.st0{fill:#1b1b1b}</style><path class="st0" d="M8.6 0C6.3 0 3.8 2 3.8 3.7v2.7c0 1.2.5 3.5 2 4.7l-4.7 2.2S0 13.8 0 14.4V16c0 .6.5 1.1 1.1 1.1H16c.6 0 1.1-.5 1.1-1.1v-1.6c0-.6-1.1-1.1-1.1-1.1l-4.6-2.2c1.5-1.2 2-3.4 2-4.7V3.7C13.3 1.9 10.9 0 8.6 0zm0 1c1.8 0 3.7 1.5 3.7 2.7v2.7c0 1-.4 3-1.6 3.9-.3.2-.4.6-.4 1s.3.7.6.8l4.6 2.2s.4.1.4.7v1H1v-1.1c0-.4.3-.6.4-.6l4.7-2.2c.3-.2.6-.5.6-.8 0-.4-.1-.7-.4-1-1.1-.9-1.6-2.8-1.6-3.9V3.7C4.8 2.6 6.8 1 8.6 1"/></symbol><symbol id="icon-vk-social" viewBox="0 0 96.496 96.496"><path d="M92.499 65.178c-2.873-3.446-6.254-6.387-9.453-9.51-2.886-2.815-3.068-4.448-.748-7.697 2.532-3.546 5.255-6.956 7.81-10.486 2.385-3.299 4.823-6.589 6.078-10.539.796-2.513.092-3.623-2.485-4.063-.444-.077-.903-.081-1.355-.081l-15.289-.018c-1.883-.028-2.924.793-3.59 2.462-.899 2.256-1.826 4.51-2.897 6.687-2.43 4.936-5.144 9.707-8.949 13.747-.839.891-1.767 2.017-3.169 1.553-1.754-.64-2.271-3.53-2.242-4.507l-.015-17.647c-.34-2.521-.899-3.645-3.402-4.135l-15.882.003c-2.12 0-3.183.819-4.315 2.145-.653.766-.85 1.263.492 1.517 2.636.5 4.121 2.206 4.515 4.849.632 4.223.588 8.463.224 12.703-.107 1.238-.32 2.473-.811 3.629-.768 1.817-2.008 2.187-3.637 1.069-1.475-1.012-2.511-2.44-3.525-3.874-3.809-5.382-6.848-11.186-9.326-17.285-.716-1.762-1.951-2.83-3.818-2.859a389.727 389.727 0 0 0-13.762.004c-2.76.052-3.583 1.392-2.459 3.894 4.996 11.113 10.557 21.917 17.816 31.759 3.727 5.051 8.006 9.51 13.534 12.67 6.265 3.582 13.009 4.66 20.112 4.328 3.326-.156 4.325-1.021 4.479-4.336.104-2.268.361-4.523 1.48-6.561 1.098-2 2.761-2.381 4.678-1.137.959.623 1.767 1.416 2.53 2.252 1.872 2.048 3.677 4.158 5.62 6.137 2.437 2.48 5.324 3.945 8.954 3.646l14.052.003c2.264-.148 3.438-2.924 2.138-5.451-.913-1.77-2.111-3.346-3.383-4.871z"/></symbol><symbol id="icon-yandex-social" viewBox="0 0 320 320"><path d="M227.184 0h-45.466c-46.063 0-92.541 34.014-92.541 110.004 0 39.361 16.683 70.017 47.263 87.451L80.468 298.762c-2.653 4.791-2.722 10.221-.185 14.525C82.76 317.49 87.288 320 92.395 320h28.311c6.432 0 11.448-3.109 13.852-8.555L187.037 208.8h3.83v98.407c0 6.935 5.852 12.793 12.778 12.793h24.735c7.767 0 13.191-5.424 13.191-13.19V14.002C241.572 5.758 235.656 0 227.184 0zm-36.316 163.204h-6.756c-26.197 0-41.837-21.384-41.837-57.202 0-44.537 19.757-60.405 38.247-60.405h10.346v117.607z"/></symbol></svg>